<svg width="28" height="28" viewBox="0 0 28 28" fill="none" xmlns="http://www.w3.org/2000/svg">
<path d="M25.7189 20.44C24.9541 19.7986 20.4689 16.9584 19.7234 17.0888C19.3734 17.1509 19.1056 17.4493 18.389 18.3041C18.0576 18.7249 17.6936 19.119 17.3005 19.4827C16.5802 19.3088 15.8829 19.0503 15.2233 18.7127C12.6361 17.4532 10.5461 15.3625 9.28725 12.775C8.94971 12.1153 8.69125 11.4181 8.51725 10.6978C8.88101 10.3046 9.2751 9.94066 9.69588 9.60925C10.5499 8.89263 10.8491 8.62662 10.9113 8.27487C11.0416 7.52762 8.19875 3.04413 7.56 2.27938C7.29225 1.96263 7.049 1.75 6.7375 1.75C5.8345 1.75 1.75 6.8005 1.75 7.455C1.75 7.50838 1.8375 12.7663 8.47788 19.5221C15.2338 26.1625 20.4916 26.25 20.545 26.25C21.1995 26.25 26.25 22.1655 26.25 21.2625C26.25 20.951 26.0374 20.7078 25.7189 20.44Z" fill="#1D3665"/>
<path d="M20.125 13.125H21.875C21.8729 11.2691 21.1347 9.48986 19.8224 8.17755C18.5101 6.86525 16.7309 6.12708 14.875 6.125V7.875C16.267 7.87639 17.6015 8.42996 18.5858 9.41422C19.57 10.3985 20.1236 11.733 20.125 13.125Z" fill="#1D3665"/>
<path d="M24.5 13.125H26.25C26.2465 10.1092 25.047 7.21797 22.9145 5.0855C20.782 2.95302 17.8908 1.75347 14.875 1.75V3.5C17.4268 3.50301 19.8732 4.51804 21.6776 6.32242C23.482 8.12681 24.497 10.5732 24.5 13.125Z" fill="#1D3665"/>
</svg>
