<svg width="56" height="56" viewBox="0 0 56 56" fill="none" xmlns="http://www.w3.org/2000/svg">
<path d="M28 0C17.1388 0 8.3125 8.82656 8.3125 19.6875C8.3125 23.3625 9.32991 26.9392 11.2657 30.0235L26.6654 55.2251C26.9281 55.6516 27.3219 55.9142 27.7814 55.9799C28.4046 56.0782 29.094 55.8158 29.4548 55.1924L44.8985 29.7609C46.7358 26.7423 47.6875 23.2314 47.6875 19.6875C47.6875 8.82656 38.8612 0 28 0ZM28 29.5312C22.4877 29.5312 18.1562 25.0688 18.1562 19.6875C18.1562 14.2733 22.5858 9.84375 28 9.84375C33.4142 9.84375 37.8438 14.2733 37.8438 19.6875C37.8438 25.0359 33.578 29.5312 28 29.5312Z" fill="#FE6117"/>
<path d="M28 0V9.84375C33.4142 9.84375 37.8438 14.2733 37.8438 19.6875C37.8438 25.0359 33.578 29.5313 28 29.5313V55.999C28.5599 56.012 29.1356 55.7436 29.4547 55.1924L44.8984 29.7609C46.7358 26.7423 47.6875 23.2314 47.6875 19.6875C47.6875 8.82656 38.8612 0 28 0Z" fill="#EF570F"/>
</svg>
