<svg width="32" height="32" viewBox="0 0 32 32" fill="none" xmlns="http://www.w3.org/2000/svg">
<path d="M28 5C28 4.44772 27.5523 4 27 4H5C4.44772 4 4 4.44772 4 5V5.66667C4 6.21895 4.44772 6.66667 5 6.66667H27C27.5523 6.66667 28 6.21895 28 5.66667V5Z" fill="white"/>
<path d="M27.9987 26.3333C27.9987 25.781 27.551 25.3333 26.9987 25.3333H14.332C13.7797 25.3333 13.332 25.781 13.332 26.3333V26.9999C13.332 27.5522 13.7797 27.9999 14.332 27.9999H26.9987C27.551 27.9999 27.9987 27.5522 27.9987 26.9999V26.3333Z" fill="white"/>
<path d="M28 15.6666C28 15.1143 27.5523 14.6666 27 14.6666H5C4.44772 14.6666 4 15.1143 4 15.6666V16.3333C4 16.8856 4.44772 17.3333 5 17.3333H27C27.5523 17.3333 28 16.8856 28 16.3333V15.6666Z" fill="white"/>
</svg>
