<?xml version="1.0" encoding="utf-8"?><svg viewBox="0 0 111 28" xmlns="http://www.w3.org/2000/svg" xmlns:xlink="http://www.w3.org/1999/xlink"><style>:root>svg{display:none}:root>svg:target{display:block}</style><svg fill="none" viewBox="0 0 24 14" id="css--arr-down" xmlns="http://www.w3.org/2000/svg"><path d="M2 2l10 10L22 2" stroke="#fff" stroke-width="2.5" stroke-linecap="round" stroke-linejoin="round"/></svg><svg fill="none" viewBox="0 0 11 24" id="css--facebook" xmlns="http://www.w3.org/2000/svg"><path fill-rule="evenodd" clip-rule="evenodd" d="M11 4.125H8.8c-1.515 0-1.467.59-1.467 1.668V7.5H11l-.733 4.5H7.333v12H2.2V12H0V7.5h2.2V5.38C2.2 2.007 3.846 0 7.737 0H11v4.125z" fill="#1D3665"/></svg><svg fill="none" viewBox="0 0 24 24" id="css--pdf" xmlns="http://www.w3.org/2000/svg"><path d="M20.935 4.894L16.247.206A.703.703 0 0015.75 0H4.97C3.807 0 2.86.946 2.86 2.11v19.78c0 1.164.947 2.11 2.11 2.11h14.06c1.163 0 2.11-.946 2.11-2.11V5.39a.703.703 0 00-.206-.496zM16.453 2.4l2.287 2.287h-2.287V2.4zm2.578 20.193H4.97a.704.704 0 01-.703-.703V2.109c0-.387.315-.703.703-.703h10.078v3.985c0 .388.315.703.703.703h3.984V21.89a.704.704 0 01-.703.703z" fill="#FE6117"/><path d="M16.367 14.994h-1.69l-1.866-3.23.845-1.465a1.893 1.893 0 000-1.913A1.894 1.894 0 0012 7.429c-.692 0-1.311.357-1.657.957a1.894 1.894 0 000 1.913l.845 1.464-1.865 3.231h-1.69c-.692 0-1.312.358-1.658.957a1.894 1.894 0 000 1.913c.346.6.966.957 1.657.957.692 0 1.312-.358 1.658-.957l.845-1.464h3.73l.846 1.464c.346.6.965.957 1.657.957.692 0 1.311-.358 1.657-.957a1.893 1.893 0 000-1.913 1.894 1.894 0 00-1.657-.957zm-8.296 2.167a.499.499 0 01-.44.254.498.498 0 01-.439-.254.498.498 0 010-.507.498.498 0 01.44-.254h.878l-.44.761zM11.56 9.09a.498.498 0 01.44-.254c.264 0 .395.177.439.254a.498.498 0 010 .507l-.44.761-.44-.76a.498.498 0 010-.508zm-.614 5.905l1.053-1.825 1.054 1.825h-2.107zm5.86 2.167a.498.498 0 01-.439.254.498.498 0 01-.44-.254l-.439-.76h.88c.264 0 .394.177.438.253a.498.498 0 010 .507z" fill="#FE6117"/></svg><svg fill="none" viewBox="0 0 28 28" id="css--telephone-call_1" xmlns="http://www.w3.org/2000/svg"><path d="M25.719 20.44c-.765-.641-5.25-3.482-5.996-3.351-.35.062-.617.36-1.334 1.215-.331.42-.695.815-1.088 1.179a9.413 9.413 0 01-2.078-.77 12.862 12.862 0 01-5.936-5.938 9.411 9.411 0 01-.77-2.077 10.3 10.3 0 011.179-1.089c.854-.716 1.153-.982 1.215-1.334.13-.747-2.712-5.23-3.351-5.996-.268-.316-.511-.529-.822-.529-.904 0-4.988 5.05-4.988 5.705 0 .053.087 5.311 6.728 12.067 6.756 6.64 12.014 6.728 12.067 6.728.654 0 5.705-4.084 5.705-4.988 0-.311-.213-.554-.531-.822zm-5.594-7.315h1.75a7.008 7.008 0 00-7-7v1.75a5.255 5.255 0 015.25 5.25z" fill="#1D3665"/><path d="M24.5 13.125h1.75A11.388 11.388 0 0014.875 1.75V3.5a9.636 9.636 0 019.625 9.625z" fill="#1D3665"/></svg><svg fill="none" viewBox="0 0 111 22" id="css--wa" xmlns="http://www.w3.org/2000/svg"><g clip-path="url(#eclip0_43_266)" fill="#fff"><path d="M37.458 5.343l2.215 8.066 1.9-8.066h3.587l-3.482 12.676h-3.482l-2.216-7.857-2.215 7.857h-3.482L27.012 5.343h3.587l1.9 8.066 2.215-8.066h2.744zm40.939 8.905v3.771H75.23V5.343h3.166v6.39h1.477l2.005-3.352h3.376l-2.743 4.61 3.27 4.923h-3.587l-2.427-3.771h-1.371v.104zm22.474 3.771c-.844.105-1.583.21-2.321.21-.739 0-1.372-.21-1.794-.734-.528-.524-.739-1.152-.739-1.99V5.343h3.166v9.638c0 .21.105.314.21.419.106.105.317.21.423.21h.739l.316 2.409zm-53.073-7.333c-.317.21-.422.419-.422.838v.733h3.27v-.733c0-.42-.105-.629-.421-.734-.317-.21-.845-.314-1.161-.314-.316 0-.844 0-1.266.21zM45.37 9.533c1.055-1.047 2.532-1.257 3.798-1.257 1.267 0 2.533.21 3.377 1.048.95.943 1.055 1.99 1.055 3.143v1.99h-6.12c0 .733.106.838.739 1.152.422.21 1.055.21 1.583.21 1.16 0 2.32-.21 3.165-.42l.316 2.2a12 12 0 01-3.798.63c-2.321 0-4.431-.839-5.065-3.039-.21-.628-.21-1.361-.21-1.99 0-1.467 0-2.514 1.16-3.667zm12.03 2.514V15.4c.422.105.95.105 1.371.105 2.11 0 2.216-.943 2.216-2.62 0-1.152-.422-1.99-1.583-1.99-.738 0-1.477.314-2.004.524v.628zm-3.166-6.704H57.4v3.666c.95-.523 1.793-.628 2.848-.628 1.056 0 2.005.314 2.533.943 1.266 1.257 1.266 2.514 1.266 3.98 0 3.144-2.216 4.82-5.381 4.82-.844 0-3.799-.21-4.537-.42V5.344h.105zm31.443 3.143h3.165v5.761c0 1.153.423 1.362 1.372 1.362.739 0 1.477-.523 2.005-.838V8.486h3.165v7.123c0 .839 0 1.677.211 2.41h-2.743l-.317-.943c-1.371.838-2.215 1.152-3.587 1.152-2.849 0-3.165-1.78-3.165-4.085V8.486h-.106zm21.947 6.704v-1.047h-1.899c-.739 0-1.372.21-1.372.838 0 .524.211.943 1.161.943.844.105 1.582-.315 2.11-.734zm-5.909-6.285c1.477-.42 3.377-.838 4.959-.838 1.161 0 2.744.21 3.482 1.047.739.734.739 1.572.739 2.724 0 1.257-.106 2.41-.106 3.562v1.467c0 .314.106.942.106 1.152h-2.744l-.316-.943c-.95.629-2.11 1.152-3.165 1.152-2.427 0-3.693-.733-3.693-3.142 0-2.305 1.793-3.143 4.115-3.143h2.426v-.42c0-.837-.633-.942-1.688-.942-1.477 0-2.532.314-3.798.628l-.317-2.304zM71.116 15.19v-1.047h-1.899c-.739 0-1.372.21-1.372.838 0 .524.211.943 1.161.943.844.105 1.583-.315 2.11-.734zm-5.803-6.285c1.477-.42 3.376-.838 4.96-.838 1.16 0 2.743.21 3.481 1.047.739.734.739 1.572.739 2.724 0 1.257-.106 2.41-.106 3.562v1.467c0 .314.106.942.106 1.152h-2.744l-.316-.943c-.95.629-2.11 1.152-3.166 1.152-2.426 0-3.692-.733-3.692-3.142 0-2.305 1.793-3.143 4.114-3.143h2.427v-.42c0-.837-.633-.942-1.688-.942-1.477 0-2.532.314-3.798.628l-.317-2.304zM11.079 0C4.959 0 0 4.924 0 11s4.96 11 11.079 11c6.12 0 11.079-4.924 11.079-11s-4.96-11-11.08-11zm7.175 14.352l-.317-.943c-1.16-3.457-4.537-6.076-8.44-6.076-.95 0-1.795.105-2.639.42.528 1.152 1.056 2.409 1.056 3.98 0 2.41-.423 4.4-2.85 4.4A7.883 7.883 0 013.166 11c0-4.295 3.588-7.857 7.914-7.857S18.992 6.705 18.992 11c0 1.257-.21 2.41-.738 3.352z"/></g><defs><clipPath id="eclip0_43_266"><path fill="#fff" d="M0 0h111v22H0z"/></clipPath></defs></svg></svg>